HIERARCHY
ROOT ui
{
	 OFFSET 0 0 0
	 CHANNELS 3 XPosition YPosition Z Position
	 EndSite
	 {
	 OFFSET 0 -1 0
	 }
}
ROOT li
{
	 OFFSET 0 0 0
	 CHANNELS 3 XPosition YPosition Z Position
	 EndSite
	 {
	 OFFSET 0 -1 0
	 }
}
ROOT ul
{
	 OFFSET 0 0 0
	 CHANNELS 3 XPosition YPosition Z Position
	 EndSite
	 {
	 OFFSET 0 -1 0
	 }
}
ROOT ll
{
	 OFFSET 0 0 0
	 CHANNELS 3 XPosition YPosition Z Position
	 EndSite
	 {
	 OFFSET 0 -1 0
	 }
}
ROOT tt
{
	 OFFSET 0 0 0
	 CHANNELS 3 XPosition YPosition Z Position
	 EndSite
	 {
	 OFFSET 0 -1 0
	 }
}
ROOT tb
{
	 OFFSET 0 0 0
	 CHANNELS 3 XPosition YPosition Z Position
	 EndSite
	 {
	 OFFSET 0 -1 0
	 }
}
ROOT td
{
	 OFFSET 0 0 0
	 CHANNELS 3 XPosition YPosition Z Position
	 EndSite
	 {
	 OFFSET 0 -1 0
	 }
}
ROOT v
{
	 OFFSET 0 0 0
	 CHANNELS 3 XPosition YPosition Z Position
	 EndSite
	 {
	 OFFSET 0 -1 0
	 }
}
ROOT bn
{
	 OFFSET 0 0 0
	 CHANNELS 3 XPosition YPosition Z Position
	 EndSite
	 {
	 OFFSET 0 -1 0
	 }
}
MOTION
Frames: 21
Frame Time: 0.002
-6.353610157966614E-4	-0.004699129104614258	0		0.500794677734375	-2.378176025390625	0		-0.9988236694335938	0.23758189392089843	0		-0.52423046875	-2.678530029296875	0		2.666613525390625	-0.011118534088134766	0		4.078226806640625	0.13792240905761718	0		5.30014599609375	0.12302953338623047	0		6.04393603515625	0.6294136962890625	0		-0.27677825927734373	5.9475849609375	0		
-0.005494262218475342	3.440670073032379E-4	0		0.49096832275390623	-2.370055419921875	0		-1.0259222412109374	0.2279924774169922	0		-0.6012454833984375	-2.681309326171875	0		2.632791015625	-0.0036223790645599366	0		4.069597412109375	0.15699974060058594	0		5.27835546875	0.13231118774414063	0		6.03983935546875	0.6501995849609375	0		-0.2776603088378906	5.9485654296875	0		
-0.005451300144195557	3.1300100684165954E-4	0		0.4930415649414063	-2.367123291015625	0		-0.9919471435546875	0.22341587829589843	0		-0.5296075439453125	-2.705505859375	0		2.62680224609375	-0.005575829029083252	0		4.09673583984375	0.16249644470214844	0		5.28564306640625	0.14712319946289062	0		6.0327392578125	0.6503460693359375	0		-0.34475796508789064	5.93762939453125	0		
-5.010049939155578E-4	-0.0047938737869262695	0		0.45202676391601565	-2.36848486328125	0		-1.059757080078125	0.2335055389404297	0		-0.6314215087890624	-2.693865966796875	0		2.582987060546875	0.004091873168945313	0		4.058361572265625	0.19906655883789062	0		5.2800361328125	0.16914712524414063	0		6.03989453125	0.6499295043945312	0		-0.310581787109375	5.94305126953125	0		
0.019605998992919923	-1.429069936275482E-4	0		0.49712472534179686	-2.36324609375	0		-0.9868179931640625	0.22730323791503906	0		-0.5367247314453125	-2.713429443359375	0		2.622124267578125	0.010408560752868652	0		4.0783564453125	0.19668058776855468	0		5.28906494140625	0.16892892456054687	0		6.0350634765625	0.6707476196289063	0		-0.27740472412109374	5.9484931640625	0		
-0.005361320018768311	2.460229992866516E-4	0		0.4691336669921875	-2.362813232421875	0		-1.0257811279296876	0.22793093872070314	0		-0.57575048828125	-2.71480615234375	0		2.635184814453125	0.012150437355041503	0		4.071943603515625	0.23072976684570312	0		5.275228515625	0.17708343505859375	0		6.0355048828125	0.7328790283203125	0		-0.27731463623046876	5.94847705078125	0		
0.024587305068969726	-0.005259181022644043	0		0.4930728454589844	-2.367225830078125	0		-1.0036492309570313	0.23356640625	0		-0.5489299926757812	-2.726255126953125	0		2.593192138671875	0.010791069984436035	0		4.052015869140625	0.232994384765625	0		5.2883935546875	0.18479473876953126	0		6.03553076171875	0.7327329711914062	0		-0.32546832275390625	5.93325	0		
-0.005286242961883545	2.172749936580658E-4	0		0.44523748779296873	-2.35746142578125	0		-1.068743896484375	0.2256296844482422	0		-0.6079972534179687	-2.730296142578125	0		2.617229736328125	0.010353385925292969	0		4.026488037109375	0.2593522033691406	0		5.27869921875	0.20087689208984374	0		6.02914306640625	0.7328331298828125	0		-0.3442689514160156	5.93855126953125	0		
0.026870458602905274	0.0066834850311279295	0		0.47527984619140623	-2.35596826171875	0		-1.059564697265625	0.23348683166503906	0		-0.5720099487304687	-2.731885986328125	0		2.5963447265625	0.01465051555633545	0		4.05061669921875	0.2638934326171875	0		5.26899560546875	0.21595555114746093	0		6.049439453125	0.6695780029296875	0		-0.29391748046875	5.95172705078125	0		
-0.019139774322509767	0.0034311530590057375	0		0.448345703125	-2.352539306640625	0		-1.064576904296875	0.2295797119140625	0		-0.5400887451171875	-2.73740625	0		2.57862548828125	0.028898151397705078	0		4.029131103515625	0.2921825256347656	0		5.286291015625	0.23058924865722658	0		6.04276513671875	0.731962158203125	0		-0.30992306518554685	5.94298876953125	0		
0.019852550506591796	-2.0976099371910095E-4	0		0.4893648681640625	-2.35222119140625	0		-1.04243115234375	0.2352332763671875	0		-0.589981689453125	-2.7305810546875	0		2.564445068359375	0.015085018157958985	0		4.01718408203125	0.29231106567382814	0		5.28147314453125	0.23858145141601564	0		6.04280126953125	0.7317857666015625	0		-0.3107628479003906	5.9440078125	0		
-0.030085376739501953	0.0016097780466079712	0		0.4712347412109375	-2.35993359375	0		-1.0346353759765625	0.22012149047851562	0		-0.5601083374023438	-2.7380625	0		2.56261572265625	0.02307253646850586	0		4.0276533203125	0.3180744323730469	0		5.2766484375	0.24657173156738282	0		6.028345703125	0.6993068237304687	0		-0.31062228393554686	5.9440126953125	0		
-1.613689959049225E-4	-0.004881550788879394	0		0.4991998901367187	-2.361401611328125	0		-1.0295399169921875	0.22405699157714845	0		-0.6161712646484375	-2.740132568359375	0		2.5475791015625	0.0192747745513916	0		4.031783447265625	0.32393765258789065	0		5.28079345703125	0.2534129943847656	0		6.03572119140625	0.7317047119140625	0		-0.31049185180664063	5.94401806640625	0		
-0.030046785354614258	0.0016099820137023926	0		0.45034197998046877	-2.350606689453125	0		-1.0685023193359375	0.2257150115966797	0		-0.5472818603515625	-2.7452568359375	0		2.536691650390625	0.025409778594970702	0		4.022246337890625	0.35102764892578125	0		5.280056640625	0.26833502197265624	0		6.04631201171875	0.7137963256835937	0		-0.2951981201171875	5.9547744140625	0		
0.019928253173828125	-2.1550600230693816E-4	0		0.5022119140625	-2.35647265625	0		-1.0295220947265624	0.22408779907226561	0		-0.5802753295898437	-2.7417080078125	0		2.67972021484375	0.026010494232177734	0		4.022332763671875	0.3559571228027344	0		5.26543994140625	0.2914880676269531	0		6.042865234375	0.7310557250976563	0		-0.2762024536132813	5.94846435546875	0		
-0.02514365577697754	-0.0034803531169891357	0		0.4751673889160156	-2.3560419921875	0		-1.0514783935546874	0.2274591522216797	0		-0.5504487915039062	-2.749198974609375	0		2.636533203125	0.015672924041748047	0		4.03353857421875	0.36870611572265627	0		5.2834296875	0.2911044616699219	0		6.03550439453125	0.698302490234375	0		-0.27514010620117185	5.94744580078125	0		
0.01989828681945801	-2.3300400376319885E-4	0		0.48918145751953124	-2.352290283203125	0		-1.0555584716796875	0.22352951049804687	0		-0.5973328857421875	-2.73842822265625	0		2.606618408203125	0.02212028694152832	0		4.00566162109375	0.3771011657714844	0		5.27366455078125	0.30618475341796875	0		6.03916455078125	0.71356591796875	0		-0.3101380004882813	5.9440166015625	0		
-2.00094997882843E-4	-0.004917511940002442	0		0.4481244201660156	-2.35263427734375	0		-1.051509033203125	0.22746035766601563	0		-0.552587646484375	-2.75117724609375	0		2.576703125	0.028569038391113282	0		4.0168603515625	0.38985614013671877	0		5.28676318359375	0.3128927001953125	0		6.04261279296875	0.6977062377929687	0		-0.309103759765625	5.94298876953125	0		
0.029697778701782227	-0.01043118953704834	0		0.45216873168945315	-2.347724365234375	0		-1.0786837158203124	0.2178983154296875	0		-0.6493516845703124	-2.733591796875	0		2.562640380859375	0.02575712776184082	0		4.02181494140625	0.387716796875	0		5.2818671875	0.31990521240234376	0		6.04282666015625	0.73043896484375	0		-0.2929166259765625	5.95170751953125	0		
0.0050202832221984866	0.00995689868927002	0		0.49721786499023435	-2.3434931640625	0		-1.051531982421875	0.22743656921386718	0		-0.5475607299804688	-2.74529248046875	0		2.57479296875	0.0355180549621582	0		4.015269775390625	0.41577902221679686	0		5.29497216796875	0.3266313171386719	0		6.04281982421875	0.7303284912109375	0		-0.274955322265625	5.947390625	0		
-0.0051525559425354	1.0078900307416916E-4	0		0.4951666259765625	-2.345484619140625	0		-1.09560009765625	0.22414556884765624	0		-0.6185216064453125	-2.741140380859375	0		2.556637939453125	0.026783620834350586	0		3.9881669921875	0.41018707275390626	0		5.27724755859375	0.34388238525390624	0		6.03913037109375	0.7130921020507812	0		-0.27592376708984373	5.9483857421875	0		
